<svg width="123" height="135" viewBox="0 0 123 135" fill="none" xmlns="http://www.w3.org/2000/svg">
<path d="M3.98354 96.2184C0.514475 82.1992 5.99896 65.5984 8.69079 59.5127C4.74009 53.4322 0.805293 43.3378 12.0453 35.1063C22.315 27.5855 33.5315 34.023 36.4952 39.4358C50.6961 33.0071 74.8601 33.9066 83.7421 38.3121C90.3573 28.2017 102.033 27.1509 109.187 32.1603C118.342 38.5711 116.818 50.0967 113.717 57.583C118.458 64.6658 123.189 83.703 116.857 100.235C110.433 117.005 95.5594 131.848 67.3451 131.869C21.777 131.904 7.35763 109.854 3.98354 96.2184Z" fill="#FFDE8B"/>
<ellipse cx="19.3396" cy="102.87" rx="13.5869" ry="13.7083" transform="rotate(-0.0437348 19.3396 102.87)" fill="#FEB1BA" fill-opacity="0.6"/>
<ellipse cx="104.582" cy="100.179" rx="13.5869" ry="13.7083" transform="rotate(-0.0437348 104.582 100.179)" fill="#FEB1BA" fill-opacity="0.6"/>
<path d="M4.2745 96.6887C1.37462 84.9697 4.52772 71.1178 7.21283 63.3331C8.0473 60.9137 7.76582 58.243 6.88442 55.8403C4.49564 49.3287 4.71309 40.0449 12.5218 35.2645C20.5737 30.3352 28.2395 32.9088 32.8717 36.7757C35.3043 38.8064 38.7234 39.9895 41.7615 39.0888C53.5848 35.5837 69.1841 35.7651 78.6746 38.1364C81.6518 38.8803 84.947 37.8839 87.1764 35.7751C93.9554 29.3631 103.412 28.6569 109.453 32.8875C117.142 38.2718 117.111 46.7508 115.066 53.7634C114.358 56.1943 114.6 58.8294 115.653 61.1318C119.702 69.9782 122.972 86.6863 117.5 100.972C111.076 117.743 93.6015 130.814 65.4069 131.87C20.7496 133.543 7.64859 110.324 4.2745 96.6887Z" stroke="black" stroke-width="4.64751" stroke-linecap="round" stroke-linejoin="round"/>
<circle cx="87.326" cy="82.7004" r="3.61623" transform="rotate(-0.0437348 87.326 82.7004)" fill="black"/>
<circle cx="35.9452" cy="83.6057" r="3.61623" transform="rotate(-0.0437348 35.9452 83.6057)" fill="black"/>
<path d="M48.2598 93.5842C55.1823 97.5423 69.3254 97.9288 76.2247 93.0339" stroke="black" stroke-width="4.64751" stroke-linecap="round" stroke-linejoin="round"/>
<path d="M60.6944 28.2932C51.5229 27.6756 30.7992 15.6097 38.8851 6.18518C45.6526 -1.70268 59.7286 8.91651 60.6944 28.2932C61.5854 8.55631 73.1384 -1.07515 80.1829 4.62448C91.6828 13.9289 70.5848 27.3154 60.6944 28.2932Z" fill="#73AD59"/>
<path d="M60.6944 28.2932V35.7795V35.5662C60.6944 32.1109 60.6944 33.7108 60.6944 28.2932ZM60.6944 28.2932C51.5229 27.6756 30.7992 15.6097 38.8851 6.18518C45.6526 -1.70268 59.7286 8.91651 60.6944 28.2932ZM60.6944 28.2932C61.5854 8.55631 73.1384 -1.07515 80.1829 4.62448C91.6828 13.9289 70.5848 27.3154 60.6944 28.2932Z" stroke="black" stroke-width="4.51082" stroke-linecap="round" stroke-linejoin="round"/>
<path d="M63.1914 24.9915L72.7348 15.0332" stroke="black" stroke-width="4.51082" stroke-linecap="round"/>
<path d="M57.7982 25.4065L47.8398 15.0332" stroke="black" stroke-width="4.51082" stroke-linecap="round"/>
</svg>
