<svg width="1512" height="982" viewBox="0 0 1512 982" fill="none" xmlns="http://www.w3.org/2000/svg">
<g clip-path="url(#clip0_510_3)">
<circle cx="143.5" cy="95.5" r="9.5" fill="white"/>
<circle cx="27.5" cy="363.5" r="9.5" fill="white"/>
<circle cx="1002.5" cy="295.5" r="9.5" fill="white"/>
<circle cx="1409.5" cy="-1.5" r="9.5" fill="white"/>
<circle cx="1310.5" cy="718.5" r="9.5" fill="white"/>
<circle cx="654.5" cy="757.5" r="9.5" fill="white"/>
<circle cx="842.5" cy="759.5" r="9.5" fill="white"/>
<circle cx="137.5" cy="139.5" r="3.5" fill="white"/>
<circle cx="21.5" cy="407.5" r="3.5" fill="white"/>
<circle cx="996.5" cy="339.5" r="3.5" fill="white"/>
<circle cx="1403.5" cy="42.5" r="3.5" fill="white"/>
<circle cx="1304.5" cy="762.5" r="3.5" fill="white"/>
<circle cx="648.5" cy="801.5" r="3.5" fill="white"/>
<circle cx="502.5" cy="511.5" r="3.5" fill="white"/>
<circle cx="909.5" cy="214.5" r="3.5" fill="white"/>
<circle cx="812.5" cy="405.5" r="3.5" fill="white"/>
<circle cx="1219.5" cy="108.5" r="3.5" fill="white"/>
<circle cx="1120.5" cy="828.5" r="3.5" fill="white"/>
<circle cx="464.5" cy="867.5" r="3.5" fill="white"/>
<circle cx="1212.5" cy="285.5" r="3.5" fill="white"/>
<circle cx="864.5" cy="747.5" r="3.5" fill="white"/>
<circle cx="836.5" cy="803.5" r="3.5" fill="white"/>
<circle cx="198.5" cy="109.5" r="1.5" fill="white"/>
<circle cx="82.5" cy="377.5" r="1.5" fill="white"/>
<circle cx="38.5" cy="573.5" r="1.5" fill="white"/>
<circle cx="1057.5" cy="309.5" r="1.5" fill="white"/>
<circle cx="1464.5" cy="12.5" r="1.5" fill="white"/>
<circle cx="1365.5" cy="732.5" r="1.5" fill="white"/>
<circle cx="709.5" cy="771.5" r="1.5" fill="white"/>
<circle cx="897.5" cy="773.5" r="1.5" fill="white"/>
<circle cx="237.5" cy="129.5" r="1.5" fill="white"/>
<circle cx="121.5" cy="397.5" r="1.5" fill="white"/>
<circle cx="547.5" cy="23.5" r="1.5" fill="white"/>
<circle cx="77.5" cy="593.5" r="1.5" fill="white"/>
<circle cx="1096.5" cy="329.5" r="1.5" fill="white"/>
<circle cx="1503.5" cy="32.5" r="1.5" fill="white"/>
<circle cx="1404.5" cy="752.5" r="1.5" fill="white"/>
<circle cx="748.5" cy="791.5" r="1.5" fill="white"/>
<circle cx="936.5" cy="793.5" r="1.5" fill="white"/>
<circle cx="199.5" cy="154.5" r="2.5" fill="white"/>
<circle cx="83.5" cy="422.5" r="2.5" fill="white"/>
<circle cx="39.5" cy="618.5" r="2.5" fill="white"/>
<circle cx="1058.5" cy="354.5" r="2.5" fill="white"/>
<circle cx="1465.5" cy="57.5" r="2.5" fill="white"/>
<circle cx="1366.5" cy="777.5" r="2.5" fill="white"/>
<circle cx="710.5" cy="816.5" r="2.5" fill="white"/>
<circle cx="564.5" cy="526.5" r="2.5" fill="white"/>
<circle cx="971.5" cy="229.5" r="2.5" fill="white"/>
<circle cx="874.5" cy="420.5" r="2.5" fill="white"/>
<circle cx="1281.5" cy="123.5" r="2.5" fill="white"/>
<circle cx="1182.5" cy="843.5" r="2.5" fill="white"/>
<circle cx="526.5" cy="882.5" r="2.5" fill="white"/>
<circle cx="1274.5" cy="300.5" r="2.5" fill="white"/>
<circle cx="898.5" cy="818.5" r="2.5" fill="white"/>
<circle cx="161.5" cy="179.5" r="3.5" fill="white"/>
<circle cx="45.5" cy="447.5" r="3.5" fill="white"/>
<circle cx="1.5" cy="643.5" r="3.5" fill="white"/>
<circle cx="1020.5" cy="379.5" r="3.5" fill="white"/>
<circle cx="1427.5" cy="82.5" r="3.5" fill="white"/>
<circle cx="1328.5" cy="802.5" r="3.5" fill="white"/>
<circle cx="672.5" cy="841.5" r="3.5" fill="white"/>
<circle cx="526.5" cy="551.5" r="3.5" fill="white"/>
<circle cx="933.5" cy="254.5" r="3.5" fill="white"/>
<circle cx="836.5" cy="445.5" r="3.5" fill="white"/>
<circle cx="1243.5" cy="148.5" r="3.5" fill="white"/>
<circle cx="1144.5" cy="868.5" r="3.5" fill="white"/>
<circle cx="488.5" cy="907.5" r="3.5" fill="white"/>
<circle cx="1236.5" cy="325.5" r="3.5" fill="white"/>
<circle cx="860.5" cy="843.5" r="3.5" fill="white"/>
<circle cx="358.5" cy="65.5" r="9.5" fill="white"/>
<circle cx="242.5" cy="333.5" r="9.5" fill="white"/>
<circle cx="198.5" cy="529.5" r="9.5" fill="white"/>
<circle cx="508.5" cy="423.5" r="9.5" fill="white"/>
<circle cx="915.5" cy="126.5" r="9.5" fill="white"/>
<circle cx="908.5" cy="303.5" r="9.5" fill="white"/>
<circle cx="1315.5" cy="6.5" r="9.5" fill="white"/>
<circle cx="1216.5" cy="726.5" r="9.5" fill="white"/>
<circle cx="560.5" cy="765.5" r="9.5" fill="white"/>
<circle cx="1217.5" cy="265.5" r="9.5" fill="white"/>
<circle cx="869.5" cy="727.5" r="9.5" fill="white"/>
<circle cx="1057.5" cy="729.5" r="9.5" fill="white"/>
<circle cx="489.5" cy="201.5" r="9.5" fill="white"/>
<circle cx="799.5" cy="95.5" r="9.5" fill="white"/>
<circle cx="1107.5" cy="518.5" r="9.5" fill="white"/>
<circle cx="1514.5" cy="221.5" r="9.5" fill="white"/>
<circle cx="451.5" cy="557.5" r="9.5" fill="white"/>
<circle cx="858.5" cy="260.5" r="9.5" fill="white"/>
<circle cx="329.5" cy="665.5" r="9.5" fill="white"/>
<circle cx="639.5" cy="559.5" r="9.5" fill="white"/>
<circle cx="1046.5" cy="262.5" r="9.5" fill="white"/>
<circle cx="947.5" cy="982.5" r="9.5" fill="white"/>
<circle cx="1039.5" cy="439.5" r="9.5" fill="white"/>
<circle cx="1446.5" cy="142.5" r="9.5" fill="white"/>
<circle cx="1347.5" cy="862.5" r="9.5" fill="white"/>
<circle cx="691.5" cy="901.5" r="9.5" fill="white"/>
<circle cx="66.5" cy="212.5" r="3.5" fill="white"/>
<circle cx="410.5" cy="252.5" r="1.5" fill="white"/>
<circle cx="294.5" cy="520.5" r="1.5" fill="white"/>
<circle cx="720.5" cy="146.5" r="1.5" fill="white"/>
<circle cx="1028.5" cy="569.5" r="1.5" fill="white"/>
<circle cx="1435.5" cy="272.5" r="1.5" fill="white"/>
<circle cx="372.5" cy="608.5" r="1.5" fill="white"/>
<circle cx="1120.5" cy="26.5" r="1.5" fill="white"/>
<circle cx="250.5" cy="716.5" r="1.5" fill="white"/>
<circle cx="1269.5" cy="452.5" r="1.5" fill="white"/>
<circle cx="775.5" cy="624.5" r="1.5" fill="white"/>
<circle cx="1182.5" cy="327.5" r="1.5" fill="white"/>
<circle cx="1109.5" cy="916.5" r="1.5" fill="white"/>
<circle cx="541.5" cy="388.5" r="1.5" fill="white"/>
<circle cx="948.5" cy="91.5" r="1.5" fill="white"/>
<circle cx="851.5" cy="282.5" r="1.5" fill="white"/>
<circle cx="1159.5" cy="705.5" r="1.5" fill="white"/>
<circle cx="503.5" cy="744.5" r="1.5" fill="white"/>
<circle cx="1251.5" cy="162.5" r="1.5" fill="white"/>
<circle cx="381.5" cy="852.5" r="1.5" fill="white"/>
<circle cx="299.5" cy="210.5" r="1.5" fill="white"/>
<circle cx="183.5" cy="478.5" r="1.5" fill="white"/>
<circle cx="609.5" cy="104.5" r="1.5" fill="white"/>
<circle cx="139.5" cy="674.5" r="1.5" fill="white"/>
<circle cx="1158.5" cy="410.5" r="1.5" fill="white"/>
<circle cx="1466.5" cy="833.5" r="1.5" fill="white"/>
<circle cx="810.5" cy="872.5" r="1.5" fill="white"/>
<circle cx="664.5" cy="582.5" r="1.5" fill="white"/>
<circle cx="1071.5" cy="285.5" r="1.5" fill="white"/>
<circle cx="974.5" cy="476.5" r="1.5" fill="white"/>
<circle cx="1381.5" cy="179.5" r="1.5" fill="white"/>
<circle cx="1282.5" cy="899.5" r="1.5" fill="white"/>
<circle cx="626.5" cy="938.5" r="1.5" fill="white"/>
<circle cx="1374.5" cy="356.5" r="1.5" fill="white"/>
<circle cx="998.5" cy="874.5" r="1.5" fill="white"/>
<circle cx="430.5" cy="346.5" r="1.5" fill="white"/>
<circle cx="837.5" cy="49.5" r="1.5" fill="white"/>
<circle cx="740.5" cy="240.5" r="1.5" fill="white"/>
<circle cx="1048.5" cy="663.5" r="1.5" fill="white"/>
<circle cx="392.5" cy="702.5" r="1.5" fill="white"/>
<circle cx="1140.5" cy="120.5" r="1.5" fill="white"/>
<circle cx="1448.5" cy="543.5" r="1.5" fill="white"/>
<circle cx="792.5" cy="582.5" r="1.5" fill="white"/>
<circle cx="1199.5" cy="285.5" r="1.5" fill="white"/>
<circle cx="270.5" cy="810.5" r="1.5" fill="white"/>
<circle cx="278.5" cy="253.5" r="2.5" fill="white"/>
<circle cx="162.5" cy="521.5" r="2.5" fill="white"/>
<circle cx="588.5" cy="147.5" r="2.5" fill="white"/>
<circle cx="988.5" cy="27.5" r="2.5" fill="white"/>
<circle cx="118.5" cy="717.5" r="2.5" fill="white"/>
<circle cx="1137.5" cy="453.5" r="2.5" fill="white"/>
<circle cx="1445.5" cy="876.5" r="2.5" fill="white"/>
<circle cx="789.5" cy="915.5" r="2.5" fill="white"/>
<circle cx="643.5" cy="625.5" r="2.5" fill="white"/>
<circle cx="1050.5" cy="328.5" r="2.5" fill="white"/>
<circle cx="953.5" cy="519.5" r="2.5" fill="white"/>
<circle cx="1360.5" cy="222.5" r="2.5" fill="white"/>
<circle cx="1261.5" cy="942.5" r="2.5" fill="white"/>
<circle cx="605.5" cy="981.5" r="2.5" fill="white"/>
<circle cx="1353.5" cy="399.5" r="2.5" fill="white"/>
<circle cx="977.5" cy="917.5" r="2.5" fill="white"/>
<circle cx="161.5" cy="271.5" r="3.5" fill="white"/>
<circle cx="45.5" cy="539.5" r="3.5" fill="white"/>
<circle cx="1.5" cy="735.5" r="3.5" fill="white"/>
<circle cx="1020.5" cy="471.5" r="3.5" fill="white"/>
<circle cx="1427.5" cy="174.5" r="3.5" fill="white"/>
<circle cx="1328.5" cy="894.5" r="3.5" fill="white"/>
<circle cx="672.5" cy="933.5" r="3.5" fill="white"/>
<circle cx="526.5" cy="643.5" r="3.5" fill="white"/>
<circle cx="836.5" cy="537.5" r="3.5" fill="white"/>
<circle cx="1243.5" cy="240.5" r="3.5" fill="white"/>
<circle cx="1144.5" cy="960.5" r="3.5" fill="white"/>
<circle cx="1236.5" cy="417.5" r="3.5" fill="white"/>
<circle cx="860.5" cy="935.5" r="3.5" fill="white"/>
</g>
<defs>
<clipPath id="clip0_510_3">
<rect width="1512" height="982" fill="white"/>
</clipPath>
</defs>
</svg>
