<svg width="40" height="33" viewBox="0 0 40 33" fill="none" xmlns="http://www.w3.org/2000/svg">
<path d="M39.3512 3.79415C37.9002 4.43624 36.3492 4.86986 34.7148 5.06999C36.3826 4.06933 37.6667 2.48496 38.2671 0.600393C36.7078 1.526 34.9816 2.20144 33.1387 2.56001C31.6627 0.983978 29.5613 0 27.2431 0C22.7818 0 19.1711 3.61904 19.1711 8.0803C19.1711 8.71405 19.2378 9.33112 19.3796 9.92317C12.6668 9.58962 6.7128 6.37084 2.73515 1.47597C2.04303 2.66842 1.64276 4.061 1.64276 5.53696C1.64276 8.3388 3.06871 10.8154 5.23682 12.2664C3.91094 12.233 2.6601 11.8661 1.57605 11.2574C1.57605 11.2907 1.57605 11.3241 1.57605 11.3574C1.57605 15.2767 4.36124 18.5372 8.05536 19.2793C7.37991 19.4628 6.66277 19.5628 5.92895 19.5628C5.41194 19.5628 4.90326 19.5128 4.41127 19.4127C5.43695 22.6232 8.42227 24.958 11.958 25.0247C9.19779 27.1928 5.71214 28.4853 1.92628 28.4853C1.27585 28.4853 0.633755 28.4437 0 28.3686C3.56904 30.6868 7.81353 32.021 12.3666 32.021C27.2265 32.021 35.3485 19.7046 35.3485 9.02258C35.3485 8.67235 35.3402 8.32212 35.3235 7.98023C36.8996 6.83782 38.2671 5.41188 39.3512 3.79415Z" fill="#5383B3"/>
</svg>
